<mxfile host="Electron" modified="2023-12-11T05:24:09.443Z" agent="Mozilla/5.0 (Windows NT 10.0; Win64; x64) AppleWebKit/537.36 (KHTML, like Gecko) draw.io/22.1.2 Chrome/114.0.5735.289 Electron/25.9.4 Safari/537.36" etag="23gUIIusrIzZXPzUEMTf" version="22.1.2" type="device">
  <diagram name="Page-1" id="Ht-72kdFWiURQEwsex4A">
    <mxGraphModel dx="933" dy="848" grid="0" gridSize="10" guides="1" tooltips="1" connect="1" arrows="1" fold="1" page="1" pageScale="3" pageWidth="827" pageHeight="1169" math="0" shadow="0">
      <root>
        <mxCell id="0" />
        <mxCell id="1" parent="0" />
        <mxCell id="NWZR9Ss1ib_OHOZOkIhO-35" value="" style="group;dropTarget=1;noLabel=0;" parent="1" vertex="1" connectable="0">
          <mxGeometry x="130" y="640" width="230" height="850" as="geometry" />
        </mxCell>
        <mxCell id="NWZR9Ss1ib_OHOZOkIhO-1" value="Set up test environments" style="rounded=1;whiteSpace=wrap;html=1;arcSize=50;" parent="NWZR9Ss1ib_OHOZOkIhO-35" vertex="1">
          <mxGeometry x="20" y="40" width="180" height="60" as="geometry" />
        </mxCell>
        <mxCell id="NWZR9Ss1ib_OHOZOkIhO-2" value="Test Affine Transformations" style="rounded=1;whiteSpace=wrap;html=1;arcSize=50;" parent="NWZR9Ss1ib_OHOZOkIhO-35" vertex="1">
          <mxGeometry x="20" y="130" width="180" height="60" as="geometry" />
        </mxCell>
        <mxCell id="NWZR9Ss1ib_OHOZOkIhO-22" style="edgeStyle=orthogonalEdgeStyle;rounded=0;jumpStyle=none;orthogonalLoop=1;jettySize=auto;html=1;exitX=0.5;exitY=1;exitDx=0;exitDy=0;entryX=0.5;entryY=0;entryDx=0;entryDy=0;" parent="NWZR9Ss1ib_OHOZOkIhO-35" source="NWZR9Ss1ib_OHOZOkIhO-1" target="NWZR9Ss1ib_OHOZOkIhO-2" edge="1">
          <mxGeometry relative="1" as="geometry" />
        </mxCell>
        <mxCell id="NWZR9Ss1ib_OHOZOkIhO-5" value="Test Each Colour Modification Technique individual" style="rounded=1;whiteSpace=wrap;html=1;arcSize=50;" parent="NWZR9Ss1ib_OHOZOkIhO-35" vertex="1">
          <mxGeometry x="20" y="220" width="180" height="60" as="geometry" />
        </mxCell>
        <mxCell id="NWZR9Ss1ib_OHOZOkIhO-11" style="edgeStyle=orthogonalEdgeStyle;rounded=0;jumpStyle=none;orthogonalLoop=1;jettySize=auto;html=1;exitX=0.5;exitY=1;exitDx=0;exitDy=0;entryX=0.5;entryY=0;entryDx=0;entryDy=0;" parent="NWZR9Ss1ib_OHOZOkIhO-35" source="NWZR9Ss1ib_OHOZOkIhO-2" target="NWZR9Ss1ib_OHOZOkIhO-5" edge="1">
          <mxGeometry relative="1" as="geometry" />
        </mxCell>
        <mxCell id="NWZR9Ss1ib_OHOZOkIhO-7" value="Combine Best performing Augmentation techniques" style="rounded=1;whiteSpace=wrap;html=1;arcSize=50;" parent="NWZR9Ss1ib_OHOZOkIhO-35" vertex="1">
          <mxGeometry x="20" y="400" width="180" height="60" as="geometry" />
        </mxCell>
        <mxCell id="NWZR9Ss1ib_OHOZOkIhO-12" value="Test combined augmentation techniques on larger dataset" style="rounded=1;whiteSpace=wrap;html=1;arcSize=50;" parent="NWZR9Ss1ib_OHOZOkIhO-35" vertex="1">
          <mxGeometry x="20" y="490" width="180" height="60" as="geometry" />
        </mxCell>
        <mxCell id="NWZR9Ss1ib_OHOZOkIhO-13" style="edgeStyle=orthogonalEdgeStyle;rounded=0;jumpStyle=none;orthogonalLoop=1;jettySize=auto;html=1;exitX=0.5;exitY=1;exitDx=0;exitDy=0;entryX=0.5;entryY=0;entryDx=0;entryDy=0;" parent="NWZR9Ss1ib_OHOZOkIhO-35" source="NWZR9Ss1ib_OHOZOkIhO-7" target="NWZR9Ss1ib_OHOZOkIhO-12" edge="1">
          <mxGeometry relative="1" as="geometry" />
        </mxCell>
        <mxCell id="NWZR9Ss1ib_OHOZOkIhO-15" value="Propose best augmentation technique" style="rounded=1;whiteSpace=wrap;html=1;arcSize=50;" parent="NWZR9Ss1ib_OHOZOkIhO-35" vertex="1">
          <mxGeometry x="20" y="670" width="180" height="60" as="geometry" />
        </mxCell>
        <mxCell id="NWZR9Ss1ib_OHOZOkIhO-19" style="edgeStyle=orthogonalEdgeStyle;rounded=0;jumpStyle=none;orthogonalLoop=1;jettySize=auto;html=1;exitX=0.5;exitY=1;exitDx=0;exitDy=0;entryX=0.5;entryY=0;entryDx=0;entryDy=0;" parent="NWZR9Ss1ib_OHOZOkIhO-35" source="NWZR9Ss1ib_OHOZOkIhO-17" target="NWZR9Ss1ib_OHOZOkIhO-15" edge="1">
          <mxGeometry relative="1" as="geometry" />
        </mxCell>
        <mxCell id="NWZR9Ss1ib_OHOZOkIhO-17" value="Test augmentation percentages" style="rounded=1;whiteSpace=wrap;html=1;arcSize=50;" parent="NWZR9Ss1ib_OHOZOkIhO-35" vertex="1">
          <mxGeometry x="20" y="580" width="180" height="60" as="geometry" />
        </mxCell>
        <mxCell id="NWZR9Ss1ib_OHOZOkIhO-18" style="edgeStyle=orthogonalEdgeStyle;rounded=0;jumpStyle=none;orthogonalLoop=1;jettySize=auto;html=1;exitX=0.5;exitY=1;exitDx=0;exitDy=0;" parent="NWZR9Ss1ib_OHOZOkIhO-35" source="NWZR9Ss1ib_OHOZOkIhO-12" target="NWZR9Ss1ib_OHOZOkIhO-17" edge="1">
          <mxGeometry relative="1" as="geometry" />
        </mxCell>
        <mxCell id="NWZR9Ss1ib_OHOZOkIhO-20" value="Test on whole dataset using Lyceum" style="rounded=1;whiteSpace=wrap;html=1;arcSize=50;" parent="NWZR9Ss1ib_OHOZOkIhO-35" vertex="1">
          <mxGeometry x="20" y="760" width="180" height="60" as="geometry" />
        </mxCell>
        <mxCell id="NWZR9Ss1ib_OHOZOkIhO-21" style="edgeStyle=orthogonalEdgeStyle;rounded=0;jumpStyle=none;orthogonalLoop=1;jettySize=auto;html=1;exitX=0.5;exitY=1;exitDx=0;exitDy=0;entryX=0.5;entryY=0;entryDx=0;entryDy=0;" parent="NWZR9Ss1ib_OHOZOkIhO-35" source="NWZR9Ss1ib_OHOZOkIhO-15" target="NWZR9Ss1ib_OHOZOkIhO-20" edge="1">
          <mxGeometry relative="1" as="geometry" />
        </mxCell>
        <mxCell id="NWZR9Ss1ib_OHOZOkIhO-25" style="edgeStyle=orthogonalEdgeStyle;rounded=0;jumpStyle=none;orthogonalLoop=1;jettySize=auto;html=1;exitX=0.5;exitY=1;exitDx=0;exitDy=0;entryX=0.5;entryY=0;entryDx=0;entryDy=0;" parent="NWZR9Ss1ib_OHOZOkIhO-35" source="NWZR9Ss1ib_OHOZOkIhO-23" target="NWZR9Ss1ib_OHOZOkIhO-7" edge="1">
          <mxGeometry relative="1" as="geometry" />
        </mxCell>
        <mxCell id="NWZR9Ss1ib_OHOZOkIhO-23" value="Test Gaussian Noise" style="rounded=1;whiteSpace=wrap;html=1;arcSize=50;" parent="NWZR9Ss1ib_OHOZOkIhO-35" vertex="1">
          <mxGeometry x="20" y="310" width="180" height="60" as="geometry" />
        </mxCell>
        <mxCell id="NWZR9Ss1ib_OHOZOkIhO-24" style="edgeStyle=orthogonalEdgeStyle;rounded=0;jumpStyle=none;orthogonalLoop=1;jettySize=auto;html=1;exitX=0.5;exitY=1;exitDx=0;exitDy=0;entryX=0.5;entryY=0;entryDx=0;entryDy=0;" parent="NWZR9Ss1ib_OHOZOkIhO-35" source="NWZR9Ss1ib_OHOZOkIhO-5" target="NWZR9Ss1ib_OHOZOkIhO-23" edge="1">
          <mxGeometry relative="1" as="geometry" />
        </mxCell>
        <mxCell id="NWZR9Ss1ib_OHOZOkIhO-34" value="Project Outline" style="swimlane;fontStyle=0;childLayout=stackLayout;horizontal=1;startSize=26;fillColor=none;horizontalStack=0;resizeParent=1;resizeParentMax=0;resizeLast=0;collapsible=1;marginBottom=0;swimlaneLine=1;" parent="NWZR9Ss1ib_OHOZOkIhO-35" vertex="1">
          <mxGeometry width="230" height="850" as="geometry">
            <mxRectangle width="120" height="30" as="alternateBounds" />
          </mxGeometry>
        </mxCell>
        <mxCell id="iitkpMzpejvPri1dx7fn-137" style="edgeStyle=orthogonalEdgeStyle;rounded=0;orthogonalLoop=1;jettySize=auto;html=1;exitX=0.5;exitY=1;exitDx=0;exitDy=0;entryX=0.5;entryY=0;entryDx=0;entryDy=0;" edge="1" parent="1" source="NWZR9Ss1ib_OHOZOkIhO-37" target="iitkpMzpejvPri1dx7fn-136">
          <mxGeometry relative="1" as="geometry" />
        </mxCell>
        <mxCell id="NWZR9Ss1ib_OHOZOkIhO-37" value="Create Stratified Sample &lt;br&gt;Dataset" style="rounded=1;whiteSpace=wrap;html=1;arcSize=0;container=0;" parent="1" vertex="1">
          <mxGeometry x="1832" y="560" width="180" height="60" as="geometry" />
        </mxCell>
        <mxCell id="NWZR9Ss1ib_OHOZOkIhO-57" style="edgeStyle=orthogonalEdgeStyle;rounded=0;orthogonalLoop=1;jettySize=auto;html=1;exitX=0.5;exitY=1;exitDx=0;exitDy=0;entryX=0.5;entryY=0;entryDx=0;entryDy=0;" parent="1" source="NWZR9Ss1ib_OHOZOkIhO-55" target="NWZR9Ss1ib_OHOZOkIhO-56" edge="1">
          <mxGeometry relative="1" as="geometry" />
        </mxCell>
        <mxCell id="NWZR9Ss1ib_OHOZOkIhO-55" value="Create Cross-validation folds" style="rounded=1;whiteSpace=wrap;html=1;arcSize=0;container=0;" parent="1" vertex="1">
          <mxGeometry x="1832" y="720" width="180" height="60" as="geometry" />
        </mxCell>
        <mxCell id="NWZR9Ss1ib_OHOZOkIhO-59" style="edgeStyle=orthogonalEdgeStyle;rounded=0;orthogonalLoop=1;jettySize=auto;html=1;exitX=0.5;exitY=1;exitDx=0;exitDy=0;entryX=0.5;entryY=0;entryDx=0;entryDy=0;" parent="1" source="NWZR9Ss1ib_OHOZOkIhO-56" target="NWZR9Ss1ib_OHOZOkIhO-58" edge="1">
          <mxGeometry relative="1" as="geometry" />
        </mxCell>
        <mxCell id="NWZR9Ss1ib_OHOZOkIhO-56" value="Iterate though k-folds" style="rounded=1;whiteSpace=wrap;html=1;arcSize=0;container=0;" parent="1" vertex="1">
          <mxGeometry x="1832" y="800" width="180" height="60" as="geometry" />
        </mxCell>
        <mxCell id="NWZR9Ss1ib_OHOZOkIhO-61" style="edgeStyle=orthogonalEdgeStyle;rounded=0;orthogonalLoop=1;jettySize=auto;html=1;entryX=0.5;entryY=0;entryDx=0;entryDy=0;" parent="1" source="NWZR9Ss1ib_OHOZOkIhO-58" target="NWZR9Ss1ib_OHOZOkIhO-60" edge="1">
          <mxGeometry relative="1" as="geometry" />
        </mxCell>
        <mxCell id="NWZR9Ss1ib_OHOZOkIhO-58" value="Test without Data Augmentation method" style="rounded=1;whiteSpace=wrap;html=1;arcSize=0;container=0;" parent="1" vertex="1">
          <mxGeometry x="1832" y="880" width="180" height="60" as="geometry" />
        </mxCell>
        <mxCell id="iitkpMzpejvPri1dx7fn-139" style="edgeStyle=orthogonalEdgeStyle;rounded=0;orthogonalLoop=1;jettySize=auto;html=1;exitX=0.5;exitY=1;exitDx=0;exitDy=0;entryX=0.5;entryY=0;entryDx=0;entryDy=0;" edge="1" parent="1" source="NWZR9Ss1ib_OHOZOkIhO-60" target="NWZR9Ss1ib_OHOZOkIhO-65">
          <mxGeometry relative="1" as="geometry" />
        </mxCell>
        <mxCell id="NWZR9Ss1ib_OHOZOkIhO-60" value="Test with Data Augmentation Method" style="rounded=1;whiteSpace=wrap;html=1;arcSize=0;container=0;" parent="1" vertex="1">
          <mxGeometry x="1832" y="960" width="180" height="60" as="geometry" />
        </mxCell>
        <mxCell id="iitkpMzpejvPri1dx7fn-140" style="edgeStyle=orthogonalEdgeStyle;rounded=0;orthogonalLoop=1;jettySize=auto;html=1;exitX=0.5;exitY=1;exitDx=0;exitDy=0;entryX=0.5;entryY=0;entryDx=0;entryDy=0;" edge="1" parent="1" source="NWZR9Ss1ib_OHOZOkIhO-65" target="iitkpMzpejvPri1dx7fn-135">
          <mxGeometry relative="1" as="geometry" />
        </mxCell>
        <mxCell id="NWZR9Ss1ib_OHOZOkIhO-65" value="Record results" style="rounded=1;whiteSpace=wrap;html=1;arcSize=0;container=0;" parent="1" vertex="1">
          <mxGeometry x="1832" y="1040" width="180" height="60" as="geometry" />
        </mxCell>
        <mxCell id="NWZR9Ss1ib_OHOZOkIhO-68" value="Data Augmentation" style="swimlane;fontStyle=1;align=center;verticalAlign=top;childLayout=stackLayout;horizontal=1;startSize=26;horizontalStack=0;resizeParent=1;resizeParentMax=0;resizeLast=0;collapsible=1;marginBottom=0;" parent="1" vertex="1">
          <mxGeometry x="1180" y="30" width="240" height="248" as="geometry" />
        </mxCell>
        <mxCell id="NWZR9Ss1ib_OHOZOkIhO-69" value="Class contains algorithms for performing &#xa;data aug methods. &#xa;class must take dataset images and labels&#xa;and return augmented dataset, as well as&#xa;new labels for augmented images.&#xa;&#xa;+ field: type" style="text;strokeColor=none;fillColor=none;align=left;verticalAlign=top;spacingLeft=4;spacingRight=4;overflow=hidden;rotatable=0;points=[[0,0.5],[1,0.5]];portConstraint=eastwest;" parent="NWZR9Ss1ib_OHOZOkIhO-68" vertex="1">
          <mxGeometry y="26" width="240" height="124" as="geometry" />
        </mxCell>
        <mxCell id="NWZR9Ss1ib_OHOZOkIhO-70" value="" style="line;strokeWidth=1;fillColor=none;align=left;verticalAlign=middle;spacingTop=-1;spacingLeft=3;spacingRight=3;rotatable=0;labelPosition=right;points=[];portConstraint=eastwest;strokeColor=inherit;" parent="NWZR9Ss1ib_OHOZOkIhO-68" vertex="1">
          <mxGeometry y="150" width="240" height="8" as="geometry" />
        </mxCell>
        <mxCell id="NWZR9Ss1ib_OHOZOkIhO-71" value="+ performAffine(dataset): dataset&#xa;+ performHistEq(dataset): dataset&#xa;+ performSharpening(dataset): dataset&#xa;+ performWhiteBal(dataset): dataset&#xa;+ performGausNoise(dataset): dataset&#xa;" style="text;strokeColor=none;fillColor=none;align=left;verticalAlign=top;spacingLeft=4;spacingRight=4;overflow=hidden;rotatable=0;points=[[0,0.5],[1,0.5]];portConstraint=eastwest;" parent="NWZR9Ss1ib_OHOZOkIhO-68" vertex="1">
          <mxGeometry y="158" width="240" height="90" as="geometry" />
        </mxCell>
        <mxCell id="VnkbzyxZcMbfstCNaLRz-1" value="SubDataset" style="swimlane;fontStyle=1;align=center;verticalAlign=top;childLayout=stackLayout;horizontal=1;startSize=26;horizontalStack=0;resizeParent=1;resizeParentMax=0;resizeLast=0;collapsible=1;marginBottom=0;" parent="1" vertex="1">
          <mxGeometry x="660" y="30" width="240" height="318" as="geometry" />
        </mxCell>
        <mxCell id="VnkbzyxZcMbfstCNaLRz-2" value="Takes original data set and creates sub &#xa;dataset train/test split to be used for tests.&#xa;as well as splits into folds for cross val&#xa;&#xa;Takes size of new dataset as parameter &#xa;and number of folds. uses json file. &#xa;&#xa;produces yaml file for new dataset for tests. &#xa;creates it fairly. using stratified cross val &#xa;&#xa;+ metadata: Dictionary&#xa;+ size: Int &#xa;" style="text;strokeColor=none;fillColor=none;align=left;verticalAlign=top;spacingLeft=4;spacingRight=4;overflow=hidden;rotatable=0;points=[[0,0.5],[1,0.5]];portConstraint=eastwest;" parent="VnkbzyxZcMbfstCNaLRz-1" vertex="1">
          <mxGeometry y="26" width="240" height="194" as="geometry" />
        </mxCell>
        <mxCell id="VnkbzyxZcMbfstCNaLRz-3" value="" style="line;strokeWidth=1;fillColor=none;align=left;verticalAlign=middle;spacingTop=-1;spacingLeft=3;spacingRight=3;rotatable=0;labelPosition=right;points=[];portConstraint=eastwest;strokeColor=inherit;" parent="VnkbzyxZcMbfstCNaLRz-1" vertex="1">
          <mxGeometry y="220" width="240" height="8" as="geometry" />
        </mxCell>
        <mxCell id="VnkbzyxZcMbfstCNaLRz-4" value="+ main(args)" style="text;strokeColor=none;fillColor=none;align=left;verticalAlign=top;spacingLeft=4;spacingRight=4;overflow=hidden;rotatable=0;points=[[0,0.5],[1,0.5]];portConstraint=eastwest;" parent="VnkbzyxZcMbfstCNaLRz-1" vertex="1">
          <mxGeometry y="228" width="240" height="90" as="geometry" />
        </mxCell>
        <mxCell id="VnkbzyxZcMbfstCNaLRz-5" value="Tester (main)" style="swimlane;fontStyle=1;align=center;verticalAlign=top;childLayout=stackLayout;horizontal=1;startSize=26;horizontalStack=0;resizeParent=1;resizeParentMax=0;resizeLast=0;collapsible=1;marginBottom=0;" parent="1" vertex="1">
          <mxGeometry x="930" y="30" width="240" height="290" as="geometry" />
        </mxCell>
        <mxCell id="VnkbzyxZcMbfstCNaLRz-6" value="Main class for testing, takes configuration &#xa;yaml file which definies dataset and cross&#xa;val folds, augmentation methods being &#xa;used, yolo model and parameters,&#xa;&#xa;then trains/tests on orig dataset and aug &#xa;dataset and saves results&#xa;&#xa;dataset: [String]&#xa;folds: int&#xa;model: String&#xa;augMethods: [Dictionary]&#xa;startIndex: Int&#xa;endIndex: Int&#xa;" style="text;strokeColor=none;fillColor=none;align=left;verticalAlign=top;spacingLeft=4;spacingRight=4;overflow=hidden;rotatable=0;points=[[0,0.5],[1,0.5]];portConstraint=eastwest;" parent="VnkbzyxZcMbfstCNaLRz-5" vertex="1">
          <mxGeometry y="26" width="240" height="224" as="geometry" />
        </mxCell>
        <mxCell id="VnkbzyxZcMbfstCNaLRz-7" value="" style="line;strokeWidth=1;fillColor=none;align=left;verticalAlign=middle;spacingTop=-1;spacingLeft=3;spacingRight=3;rotatable=0;labelPosition=right;points=[];portConstraint=eastwest;strokeColor=inherit;" parent="VnkbzyxZcMbfstCNaLRz-5" vertex="1">
          <mxGeometry y="250" width="240" height="10" as="geometry" />
        </mxCell>
        <mxCell id="VnkbzyxZcMbfstCNaLRz-8" value="+ main(args)" style="text;strokeColor=none;fillColor=none;align=left;verticalAlign=top;spacingLeft=4;spacingRight=4;overflow=hidden;rotatable=0;points=[[0,0.5],[1,0.5]];portConstraint=eastwest;" parent="VnkbzyxZcMbfstCNaLRz-5" vertex="1">
          <mxGeometry y="260" width="240" height="30" as="geometry" />
        </mxCell>
        <mxCell id="VnkbzyxZcMbfstCNaLRz-13" value="Test" style="swimlane;fontStyle=1;align=center;verticalAlign=top;childLayout=stackLayout;horizontal=1;startSize=26;horizontalStack=0;resizeParent=1;resizeParentMax=0;resizeLast=0;collapsible=1;marginBottom=0;" parent="1" vertex="1">
          <mxGeometry x="1440" y="30" width="460" height="210" as="geometry" />
        </mxCell>
        <mxCell id="VnkbzyxZcMbfstCNaLRz-14" value="Takes a train set and test set and uses yolo&#xa;to train then test and return results.&#xa;&#xa;+ field: type" style="text;strokeColor=none;fillColor=none;align=left;verticalAlign=top;spacingLeft=4;spacingRight=4;overflow=hidden;rotatable=0;points=[[0,0.5],[1,0.5]];portConstraint=eastwest;" parent="VnkbzyxZcMbfstCNaLRz-13" vertex="1">
          <mxGeometry y="26" width="460" height="124" as="geometry" />
        </mxCell>
        <mxCell id="VnkbzyxZcMbfstCNaLRz-15" value="" style="line;strokeWidth=1;fillColor=none;align=left;verticalAlign=middle;spacingTop=-1;spacingLeft=3;spacingRight=3;rotatable=0;labelPosition=right;points=[];portConstraint=eastwest;strokeColor=inherit;" parent="VnkbzyxZcMbfstCNaLRz-13" vertex="1">
          <mxGeometry y="150" width="460" height="8" as="geometry" />
        </mxCell>
        <mxCell id="VnkbzyxZcMbfstCNaLRz-16" value="+ Test(datasetYaml: String, model: String, epoch: String, resultsLocation: String)&#xa;+ performTest()" style="text;strokeColor=none;fillColor=none;align=left;verticalAlign=top;spacingLeft=4;spacingRight=4;overflow=hidden;rotatable=0;points=[[0,0.5],[1,0.5]];portConstraint=eastwest;" parent="VnkbzyxZcMbfstCNaLRz-13" vertex="1">
          <mxGeometry y="158" width="460" height="52" as="geometry" />
        </mxCell>
        <mxCell id="iitkpMzpejvPri1dx7fn-11" value="&lt;h1&gt;&lt;span style=&quot;background-color: initial;&quot;&gt;augMethods Dictionary&amp;nbsp;&lt;/span&gt;&lt;/h1&gt;&lt;div&gt;{&lt;br style=&quot;border-color: var(--border-color);&quot;&gt;&amp;nbsp;&quot;method&quot;: &quot;affine&quot;,&lt;br style=&quot;border-color: var(--border-color);&quot;&gt;&amp;nbsp;&quot;params&quot;: {&lt;br style=&quot;border-color: var(--border-color);&quot;&gt;&amp;nbsp; &quot;imagePct&quot;: 20,&lt;br style=&quot;border-color: var(--border-color);&quot;&gt;&amp;nbsp;}&lt;br style=&quot;border-color: var(--border-color);&quot;&gt;},&lt;br style=&quot;border-color: var(--border-color);&quot;&gt;{&lt;br style=&quot;border-color: var(--border-color);&quot;&gt;&amp;nbsp;&quot;method&quot;: &quot;heqEq&quot;,&lt;br style=&quot;border-color: var(--border-color);&quot;&gt;&amp;nbsp;&quot;params&quot;: {&lt;br style=&quot;border-color: var(--border-color);&quot;&gt;&amp;nbsp; &quot;imagePct&quot;: 20,&lt;br style=&quot;border-color: var(--border-color);&quot;&gt;&amp;nbsp;}&lt;br style=&quot;border-color: var(--border-color);&quot;&gt;}&lt;br style=&quot;border-color: var(--border-color);&quot;&gt;&lt;br&gt;&lt;/div&gt;" style="text;html=1;strokeColor=default;fillColor=none;spacing=5;spacingTop=-20;whiteSpace=wrap;overflow=hidden;rounded=0;" vertex="1" parent="1">
          <mxGeometry x="2531" y="94" width="240" height="260" as="geometry" />
        </mxCell>
        <mxCell id="iitkpMzpejvPri1dx7fn-15" value="createSubDataset" style="swimlane;fontStyle=1;align=center;verticalAlign=top;childLayout=stackLayout;horizontal=1;startSize=26;horizontalStack=0;resizeParent=1;resizeParentMax=0;resizeLast=0;collapsible=1;marginBottom=0;" vertex="1" parent="1">
          <mxGeometry x="650" y="410" width="240" height="120" as="geometry" />
        </mxCell>
        <mxCell id="iitkpMzpejvPri1dx7fn-16" value="+ metadata: Dictionary&#xa;+ size: Int &#xa;" style="text;strokeColor=none;fillColor=none;align=left;verticalAlign=top;spacingLeft=4;spacingRight=4;overflow=hidden;rotatable=0;points=[[0,0.5],[1,0.5]];portConstraint=eastwest;" vertex="1" parent="iitkpMzpejvPri1dx7fn-15">
          <mxGeometry y="26" width="240" height="44" as="geometry" />
        </mxCell>
        <mxCell id="iitkpMzpejvPri1dx7fn-17" value="" style="line;strokeWidth=1;fillColor=none;align=left;verticalAlign=middle;spacingTop=-1;spacingLeft=3;spacingRight=3;rotatable=0;labelPosition=right;points=[];portConstraint=eastwest;strokeColor=inherit;" vertex="1" parent="iitkpMzpejvPri1dx7fn-15">
          <mxGeometry y="70" width="240" height="8" as="geometry" />
        </mxCell>
        <mxCell id="iitkpMzpejvPri1dx7fn-18" value="+" style="text;strokeColor=none;fillColor=none;align=left;verticalAlign=top;spacingLeft=4;spacingRight=4;overflow=hidden;rotatable=0;points=[[0,0.5],[1,0.5]];portConstraint=eastwest;" vertex="1" parent="iitkpMzpejvPri1dx7fn-15">
          <mxGeometry y="78" width="240" height="42" as="geometry" />
        </mxCell>
        <mxCell id="iitkpMzpejvPri1dx7fn-19" value="ExecuteTest (main)" style="swimlane;fontStyle=1;align=center;verticalAlign=top;childLayout=stackLayout;horizontal=1;startSize=26;horizontalStack=0;resizeParent=1;resizeParentMax=0;resizeLast=0;collapsible=1;marginBottom=0;" vertex="1" parent="1">
          <mxGeometry x="1941" y="34" width="240" height="200" as="geometry" />
        </mxCell>
        <mxCell id="iitkpMzpejvPri1dx7fn-20" value="dataset: Dictionary&#xa;subDataset: [String]&#xa;folds: int&#xa;model: String&#xa;augMethods: [Dictionary]&#xa;startIndex: Int&#xa;endIndex: Int&#xa;" style="text;strokeColor=none;fillColor=none;align=left;verticalAlign=top;spacingLeft=4;spacingRight=4;overflow=hidden;rotatable=0;points=[[0,0.5],[1,0.5]];portConstraint=eastwest;" vertex="1" parent="iitkpMzpejvPri1dx7fn-19">
          <mxGeometry y="26" width="240" height="106" as="geometry" />
        </mxCell>
        <mxCell id="iitkpMzpejvPri1dx7fn-21" value="" style="line;strokeWidth=1;fillColor=none;align=left;verticalAlign=middle;spacingTop=-1;spacingLeft=3;spacingRight=3;rotatable=0;labelPosition=right;points=[];portConstraint=eastwest;strokeColor=inherit;" vertex="1" parent="iitkpMzpejvPri1dx7fn-19">
          <mxGeometry y="132" width="240" height="20" as="geometry" />
        </mxCell>
        <mxCell id="iitkpMzpejvPri1dx7fn-22" value="+ main(args)&#xa;- createSubDataset()" style="text;strokeColor=none;fillColor=none;align=left;verticalAlign=top;spacingLeft=4;spacingRight=4;overflow=hidden;rotatable=0;points=[[0,0.5],[1,0.5]];portConstraint=eastwest;" vertex="1" parent="iitkpMzpejvPri1dx7fn-19">
          <mxGeometry y="152" width="240" height="48" as="geometry" />
        </mxCell>
        <mxCell id="iitkpMzpejvPri1dx7fn-23" value="DataAugmentation" style="swimlane;fontStyle=1;align=center;verticalAlign=top;childLayout=stackLayout;horizontal=1;startSize=26;horizontalStack=0;resizeParent=1;resizeParentMax=0;resizeLast=0;collapsible=1;marginBottom=0;" vertex="1" parent="1">
          <mxGeometry x="2191" y="34" width="240" height="200" as="geometry" />
        </mxCell>
        <mxCell id="iitkpMzpejvPri1dx7fn-24" value="+ dataset: [String]&#xa;+ datasetLocation: String" style="text;strokeColor=none;fillColor=none;align=left;verticalAlign=top;spacingLeft=4;spacingRight=4;overflow=hidden;rotatable=0;points=[[0,0.5],[1,0.5]];portConstraint=eastwest;" vertex="1" parent="iitkpMzpejvPri1dx7fn-23">
          <mxGeometry y="26" width="240" height="54" as="geometry" />
        </mxCell>
        <mxCell id="iitkpMzpejvPri1dx7fn-25" value="" style="line;strokeWidth=1;fillColor=none;align=left;verticalAlign=middle;spacingTop=-1;spacingLeft=3;spacingRight=3;rotatable=0;labelPosition=right;points=[];portConstraint=eastwest;strokeColor=inherit;" vertex="1" parent="iitkpMzpejvPri1dx7fn-23">
          <mxGeometry y="80" width="240" height="8" as="geometry" />
        </mxCell>
        <mxCell id="iitkpMzpejvPri1dx7fn-26" value="+ DataAugmentation([String], String)&#xa;+ performAffine(): &#xa;+ performHistEq(): &#xa;+ performSharpening(): &#xa;+ performWhiteBal(): &#xa;+ performGausNoise(): &#xa;" style="text;strokeColor=none;fillColor=none;align=left;verticalAlign=top;spacingLeft=4;spacingRight=4;overflow=hidden;rotatable=0;points=[[0,0.5],[1,0.5]];portConstraint=eastwest;" vertex="1" parent="iitkpMzpejvPri1dx7fn-23">
          <mxGeometry y="88" width="240" height="112" as="geometry" />
        </mxCell>
        <mxCell id="iitkpMzpejvPri1dx7fn-27" value="Test" style="swimlane;fontStyle=1;align=center;verticalAlign=top;childLayout=stackLayout;horizontal=1;startSize=26;horizontalStack=0;resizeParent=1;resizeParentMax=0;resizeLast=0;collapsible=1;marginBottom=0;" vertex="1" parent="1">
          <mxGeometry x="1941" y="244" width="490" height="170" as="geometry" />
        </mxCell>
        <mxCell id="iitkpMzpejvPri1dx7fn-28" value="+ datasetYaml: String&#xa;+ yoloModel: String&#xa;+ epochs: int&#xa;+ resultLocation: String" style="text;strokeColor=none;fillColor=none;align=left;verticalAlign=top;spacingLeft=4;spacingRight=4;overflow=hidden;rotatable=0;points=[[0,0.5],[1,0.5]];portConstraint=eastwest;" vertex="1" parent="iitkpMzpejvPri1dx7fn-27">
          <mxGeometry y="26" width="490" height="84" as="geometry" />
        </mxCell>
        <mxCell id="iitkpMzpejvPri1dx7fn-29" value="" style="line;strokeWidth=1;fillColor=none;align=left;verticalAlign=middle;spacingTop=-1;spacingLeft=3;spacingRight=3;rotatable=0;labelPosition=right;points=[];portConstraint=eastwest;strokeColor=inherit;" vertex="1" parent="iitkpMzpejvPri1dx7fn-27">
          <mxGeometry y="110" width="490" height="8" as="geometry" />
        </mxCell>
        <mxCell id="iitkpMzpejvPri1dx7fn-30" value="+ Test(datasetYaml: String, model: String, epoch: String, resultsLocation: String)&#xa;+ performTest()" style="text;strokeColor=none;fillColor=none;align=left;verticalAlign=top;spacingLeft=4;spacingRight=4;overflow=hidden;rotatable=0;points=[[0,0.5],[1,0.5]];portConstraint=eastwest;" vertex="1" parent="iitkpMzpejvPri1dx7fn-27">
          <mxGeometry y="118" width="490" height="52" as="geometry" />
        </mxCell>
        <mxCell id="iitkpMzpejvPri1dx7fn-56" style="edgeStyle=orthogonalEdgeStyle;rounded=0;orthogonalLoop=1;jettySize=auto;html=1;exitX=0.5;exitY=1;exitDx=0;exitDy=0;entryX=0.5;entryY=0;entryDx=0;entryDy=0;" edge="1" parent="1" source="iitkpMzpejvPri1dx7fn-50" target="iitkpMzpejvPri1dx7fn-53">
          <mxGeometry relative="1" as="geometry" />
        </mxCell>
        <mxCell id="iitkpMzpejvPri1dx7fn-57" style="edgeStyle=orthogonalEdgeStyle;rounded=0;orthogonalLoop=1;jettySize=auto;html=1;exitX=0.5;exitY=1;exitDx=0;exitDy=0;entryX=0.5;entryY=0;entryDx=0;entryDy=0;" edge="1" parent="1" source="iitkpMzpejvPri1dx7fn-50" target="iitkpMzpejvPri1dx7fn-52">
          <mxGeometry relative="1" as="geometry" />
        </mxCell>
        <mxCell id="iitkpMzpejvPri1dx7fn-60" style="edgeStyle=orthogonalEdgeStyle;rounded=0;orthogonalLoop=1;jettySize=auto;html=1;exitX=0.5;exitY=1;exitDx=0;exitDy=0;entryX=0.5;entryY=0;entryDx=0;entryDy=0;" edge="1" parent="1" source="iitkpMzpejvPri1dx7fn-50" target="iitkpMzpejvPri1dx7fn-51">
          <mxGeometry relative="1" as="geometry" />
        </mxCell>
        <mxCell id="iitkpMzpejvPri1dx7fn-50" value="Set up Test Environment" style="rounded=1;whiteSpace=wrap;html=1;arcSize=0;" vertex="1" parent="1">
          <mxGeometry x="1270" y="680" width="180" height="60" as="geometry" />
        </mxCell>
        <mxCell id="iitkpMzpejvPri1dx7fn-97" style="edgeStyle=orthogonalEdgeStyle;rounded=0;orthogonalLoop=1;jettySize=auto;html=1;exitX=0.5;exitY=1;exitDx=0;exitDy=0;entryX=0.5;entryY=0;entryDx=0;entryDy=0;" edge="1" parent="1" source="iitkpMzpejvPri1dx7fn-51" target="iitkpMzpejvPri1dx7fn-59">
          <mxGeometry relative="1" as="geometry" />
        </mxCell>
        <mxCell id="iitkpMzpejvPri1dx7fn-51" value="Perform Affine Transformations&lt;br&gt;Test" style="rounded=1;whiteSpace=wrap;html=1;arcSize=0;fillColor=#EA6B66;" vertex="1" parent="1">
          <mxGeometry x="1070" y="790" width="180" height="60" as="geometry" />
        </mxCell>
        <mxCell id="iitkpMzpejvPri1dx7fn-64" style="edgeStyle=orthogonalEdgeStyle;rounded=0;orthogonalLoop=1;jettySize=auto;html=1;exitX=0.5;exitY=1;exitDx=0;exitDy=0;entryX=0.5;entryY=0;entryDx=0;entryDy=0;" edge="1" parent="1" source="iitkpMzpejvPri1dx7fn-52" target="iitkpMzpejvPri1dx7fn-59">
          <mxGeometry relative="1" as="geometry">
            <Array as="points">
              <mxPoint x="1360" y="880" />
              <mxPoint x="1160" y="880" />
            </Array>
          </mxGeometry>
        </mxCell>
        <mxCell id="iitkpMzpejvPri1dx7fn-52" value="Perform Colour Modification&lt;br&gt;Tests" style="rounded=1;whiteSpace=wrap;html=1;arcSize=0;fillColor=#EA6B66;" vertex="1" parent="1">
          <mxGeometry x="1270" y="790" width="180" height="60" as="geometry" />
        </mxCell>
        <mxCell id="iitkpMzpejvPri1dx7fn-95" style="edgeStyle=orthogonalEdgeStyle;rounded=0;orthogonalLoop=1;jettySize=auto;html=1;exitX=0.5;exitY=1;exitDx=0;exitDy=0;entryX=0.5;entryY=0;entryDx=0;entryDy=0;" edge="1" parent="1" source="iitkpMzpejvPri1dx7fn-53">
          <mxGeometry relative="1" as="geometry">
            <mxPoint x="1560" y="860.0000000000002" as="sourcePoint" />
            <mxPoint x="1160" y="920" as="targetPoint" />
            <Array as="points">
              <mxPoint x="1560" y="880" />
              <mxPoint x="1160" y="880" />
            </Array>
          </mxGeometry>
        </mxCell>
        <mxCell id="iitkpMzpejvPri1dx7fn-53" value="Perform Gaussian Noise&lt;br&gt;Tests" style="rounded=1;whiteSpace=wrap;html=1;arcSize=0;fillColor=#EA6B66;" vertex="1" parent="1">
          <mxGeometry x="1470" y="790" width="180" height="60" as="geometry" />
        </mxCell>
        <mxCell id="iitkpMzpejvPri1dx7fn-58" value="Level 1" style="text;html=1;align=center;verticalAlign=middle;resizable=0;points=[];autosize=1;strokeColor=none;fillColor=#EA6B66;" vertex="1" parent="1">
          <mxGeometry x="970" y="805" width="60" height="30" as="geometry" />
        </mxCell>
        <mxCell id="iitkpMzpejvPri1dx7fn-59" value="Compare and Analyse&lt;br&gt;Results" style="rounded=1;whiteSpace=wrap;html=1;arcSize=0;" vertex="1" parent="1">
          <mxGeometry x="1070" y="900" width="180" height="60" as="geometry" />
        </mxCell>
        <mxCell id="iitkpMzpejvPri1dx7fn-99" style="edgeStyle=orthogonalEdgeStyle;rounded=0;orthogonalLoop=1;jettySize=auto;html=1;exitX=1;exitY=0.5;exitDx=0;exitDy=0;entryX=0;entryY=0.5;entryDx=0;entryDy=0;" edge="1" parent="1" source="iitkpMzpejvPri1dx7fn-65" target="iitkpMzpejvPri1dx7fn-67">
          <mxGeometry relative="1" as="geometry" />
        </mxCell>
        <mxCell id="iitkpMzpejvPri1dx7fn-65" value="Increase Dataset Sample&lt;br&gt;Size" style="rounded=1;whiteSpace=wrap;html=1;arcSize=0;" vertex="1" parent="1">
          <mxGeometry x="1270" y="900" width="180" height="60" as="geometry" />
        </mxCell>
        <mxCell id="iitkpMzpejvPri1dx7fn-70" style="edgeStyle=orthogonalEdgeStyle;rounded=0;orthogonalLoop=1;jettySize=auto;html=1;exitX=0.5;exitY=1;exitDx=0;exitDy=0;entryX=0.5;entryY=0;entryDx=0;entryDy=0;" edge="1" parent="1" source="iitkpMzpejvPri1dx7fn-67" target="iitkpMzpejvPri1dx7fn-69">
          <mxGeometry relative="1" as="geometry">
            <Array as="points">
              <mxPoint x="1560" y="980" />
              <mxPoint x="1360" y="980" />
            </Array>
          </mxGeometry>
        </mxCell>
        <mxCell id="iitkpMzpejvPri1dx7fn-67" value="Combine Best Performing&lt;br&gt;Augmentation Methods" style="rounded=1;whiteSpace=wrap;html=1;arcSize=0;" vertex="1" parent="1">
          <mxGeometry x="1470" y="900" width="180" height="60" as="geometry" />
        </mxCell>
        <mxCell id="iitkpMzpejvPri1dx7fn-103" style="edgeStyle=orthogonalEdgeStyle;rounded=0;orthogonalLoop=1;jettySize=auto;html=1;exitX=1;exitY=0.5;exitDx=0;exitDy=0;entryX=0.5;entryY=0;entryDx=0;entryDy=0;" edge="1" parent="1" source="iitkpMzpejvPri1dx7fn-69" target="iitkpMzpejvPri1dx7fn-74">
          <mxGeometry relative="1" as="geometry" />
        </mxCell>
        <mxCell id="iitkpMzpejvPri1dx7fn-69" value="Test Differnent Combinantions&lt;br&gt;of Best Performing Methods" style="rounded=1;whiteSpace=wrap;html=1;arcSize=0;fillColor=#FFB570;" vertex="1" parent="1">
          <mxGeometry x="1270" y="1005" width="180" height="60" as="geometry" />
        </mxCell>
        <mxCell id="iitkpMzpejvPri1dx7fn-72" value="Level 2" style="text;html=1;align=center;verticalAlign=middle;resizable=0;points=[];autosize=1;strokeColor=none;fillColor=#FFB570;" vertex="1" parent="1">
          <mxGeometry x="970" y="1020" width="60" height="30" as="geometry" />
        </mxCell>
        <mxCell id="iitkpMzpejvPri1dx7fn-104" style="edgeStyle=orthogonalEdgeStyle;rounded=0;orthogonalLoop=1;jettySize=auto;html=1;exitX=0;exitY=0.5;exitDx=0;exitDy=0;entryX=1;entryY=0.5;entryDx=0;entryDy=0;" edge="1" parent="1" source="iitkpMzpejvPri1dx7fn-74" target="iitkpMzpejvPri1dx7fn-75">
          <mxGeometry relative="1" as="geometry" />
        </mxCell>
        <mxCell id="iitkpMzpejvPri1dx7fn-74" value="Compare and Analyse&lt;br&gt;Results" style="rounded=1;whiteSpace=wrap;html=1;arcSize=0;" vertex="1" parent="1">
          <mxGeometry x="1470" y="1090" width="180" height="60" as="geometry" />
        </mxCell>
        <mxCell id="iitkpMzpejvPri1dx7fn-105" style="edgeStyle=orthogonalEdgeStyle;rounded=0;orthogonalLoop=1;jettySize=auto;html=1;exitX=0;exitY=0.5;exitDx=0;exitDy=0;entryX=1;entryY=0.5;entryDx=0;entryDy=0;" edge="1" parent="1" source="iitkpMzpejvPri1dx7fn-75" target="iitkpMzpejvPri1dx7fn-77">
          <mxGeometry relative="1" as="geometry" />
        </mxCell>
        <mxCell id="iitkpMzpejvPri1dx7fn-75" value="Increase Dataset Sample&lt;br&gt;Size" style="rounded=1;whiteSpace=wrap;html=1;arcSize=0;" vertex="1" parent="1">
          <mxGeometry x="1270" y="1090" width="180" height="60" as="geometry" />
        </mxCell>
        <mxCell id="iitkpMzpejvPri1dx7fn-80" style="edgeStyle=orthogonalEdgeStyle;rounded=0;orthogonalLoop=1;jettySize=auto;html=1;exitX=0.5;exitY=1;exitDx=0;exitDy=0;entryX=0.5;entryY=0;entryDx=0;entryDy=0;" edge="1" parent="1" source="iitkpMzpejvPri1dx7fn-77" target="iitkpMzpejvPri1dx7fn-79">
          <mxGeometry relative="1" as="geometry">
            <Array as="points">
              <mxPoint x="1160" y="1170" />
              <mxPoint x="1360" y="1170" />
            </Array>
          </mxGeometry>
        </mxCell>
        <mxCell id="iitkpMzpejvPri1dx7fn-77" value="Propose Best Data&amp;nbsp;&lt;br&gt;Augmentaion Combination" style="rounded=1;whiteSpace=wrap;html=1;arcSize=0;" vertex="1" parent="1">
          <mxGeometry x="1070" y="1090" width="180" height="60" as="geometry" />
        </mxCell>
        <mxCell id="iitkpMzpejvPri1dx7fn-85" style="edgeStyle=orthogonalEdgeStyle;rounded=0;orthogonalLoop=1;jettySize=auto;html=1;exitX=0.5;exitY=1;exitDx=0;exitDy=0;entryX=0.5;entryY=0;entryDx=0;entryDy=0;" edge="1" parent="1" source="iitkpMzpejvPri1dx7fn-79" target="iitkpMzpejvPri1dx7fn-84">
          <mxGeometry relative="1" as="geometry" />
        </mxCell>
        <mxCell id="iitkpMzpejvPri1dx7fn-79" value="Test using Different Percentages&lt;br&gt;of Augmented Data" style="rounded=1;whiteSpace=wrap;html=1;arcSize=0;fillColor=#97D077;" vertex="1" parent="1">
          <mxGeometry x="1270" y="1190" width="180" height="60" as="geometry" />
        </mxCell>
        <mxCell id="iitkpMzpejvPri1dx7fn-81" value="Level 3" style="text;html=1;align=center;verticalAlign=middle;resizable=0;points=[];autosize=1;strokeColor=none;fillColor=#97D077;" vertex="1" parent="1">
          <mxGeometry x="970" y="1205" width="60" height="30" as="geometry" />
        </mxCell>
        <mxCell id="iitkpMzpejvPri1dx7fn-129" style="edgeStyle=orthogonalEdgeStyle;rounded=0;orthogonalLoop=1;jettySize=auto;html=1;exitX=0.5;exitY=1;exitDx=0;exitDy=0;entryX=0.5;entryY=0;entryDx=0;entryDy=0;" edge="1" parent="1" source="iitkpMzpejvPri1dx7fn-84" target="iitkpMzpejvPri1dx7fn-127">
          <mxGeometry relative="1" as="geometry" />
        </mxCell>
        <mxCell id="iitkpMzpejvPri1dx7fn-84" value="Compare and Analyse&lt;br&gt;Results" style="rounded=1;whiteSpace=wrap;html=1;arcSize=0;" vertex="1" parent="1">
          <mxGeometry x="1270" y="1270" width="180" height="60" as="geometry" />
        </mxCell>
        <mxCell id="iitkpMzpejvPri1dx7fn-92" style="edgeStyle=orthogonalEdgeStyle;rounded=0;orthogonalLoop=1;jettySize=auto;html=1;exitX=0.5;exitY=1;exitDx=0;exitDy=0;entryX=0.5;entryY=0;entryDx=0;entryDy=0;" edge="1" parent="1" source="iitkpMzpejvPri1dx7fn-88" target="iitkpMzpejvPri1dx7fn-91">
          <mxGeometry relative="1" as="geometry" />
        </mxCell>
        <mxCell id="iitkpMzpejvPri1dx7fn-88" value="Test on AVOIDDS Dataset&lt;br&gt;using Lyceum" style="rounded=1;whiteSpace=wrap;html=1;arcSize=0;fillColor=#7EA6E0;" vertex="1" parent="1">
          <mxGeometry x="1270" y="1470" width="180" height="60" as="geometry" />
        </mxCell>
        <mxCell id="iitkpMzpejvPri1dx7fn-90" value="Lyceum" style="text;html=1;align=center;verticalAlign=middle;resizable=0;points=[];autosize=1;strokeColor=none;fillColor=#7EA6E0;" vertex="1" parent="1">
          <mxGeometry x="965" y="1485" width="70" height="30" as="geometry" />
        </mxCell>
        <mxCell id="iitkpMzpejvPri1dx7fn-124" style="edgeStyle=orthogonalEdgeStyle;rounded=0;orthogonalLoop=1;jettySize=auto;html=1;exitX=0.5;exitY=1;exitDx=0;exitDy=0;entryX=0.5;entryY=0;entryDx=0;entryDy=0;" edge="1" parent="1" source="iitkpMzpejvPri1dx7fn-91" target="iitkpMzpejvPri1dx7fn-123">
          <mxGeometry relative="1" as="geometry" />
        </mxCell>
        <mxCell id="iitkpMzpejvPri1dx7fn-91" value="Evaluate All Results" style="rounded=1;whiteSpace=wrap;html=1;arcSize=0;" vertex="1" parent="1">
          <mxGeometry x="1270" y="1550" width="180" height="60" as="geometry" />
        </mxCell>
        <mxCell id="iitkpMzpejvPri1dx7fn-98" style="edgeStyle=orthogonalEdgeStyle;rounded=0;orthogonalLoop=1;jettySize=auto;html=1;exitX=1;exitY=0.5;exitDx=0;exitDy=0;entryX=-0.017;entryY=0.516;entryDx=0;entryDy=0;entryPerimeter=0;" edge="1" parent="1" source="iitkpMzpejvPri1dx7fn-59" target="iitkpMzpejvPri1dx7fn-65">
          <mxGeometry relative="1" as="geometry" />
        </mxCell>
        <mxCell id="iitkpMzpejvPri1dx7fn-106" style="edgeStyle=orthogonalEdgeStyle;rounded=0;orthogonalLoop=1;jettySize=auto;html=1;exitX=0;exitY=0.75;exitDx=0;exitDy=0;entryX=0;entryY=0.25;entryDx=0;entryDy=0;" edge="1" parent="1" source="iitkpMzpejvPri1dx7fn-79" target="iitkpMzpejvPri1dx7fn-79">
          <mxGeometry relative="1" as="geometry">
            <Array as="points">
              <mxPoint x="1240" y="1235" />
              <mxPoint x="1240" y="1205" />
            </Array>
          </mxGeometry>
        </mxCell>
        <mxCell id="iitkpMzpejvPri1dx7fn-107" style="edgeStyle=orthogonalEdgeStyle;rounded=0;orthogonalLoop=1;jettySize=auto;html=1;exitX=0;exitY=0.75;exitDx=0;exitDy=0;entryX=0;entryY=0.25;entryDx=0;entryDy=0;" edge="1" parent="1" source="iitkpMzpejvPri1dx7fn-69" target="iitkpMzpejvPri1dx7fn-69">
          <mxGeometry relative="1" as="geometry">
            <Array as="points">
              <mxPoint x="1240" y="1050" />
              <mxPoint x="1240" y="1020" />
            </Array>
          </mxGeometry>
        </mxCell>
        <mxCell id="iitkpMzpejvPri1dx7fn-123" value="End" style="rounded=1;whiteSpace=wrap;html=1;arcSize=50;" vertex="1" parent="1">
          <mxGeometry x="1270" y="1630" width="180" height="60" as="geometry" />
        </mxCell>
        <mxCell id="iitkpMzpejvPri1dx7fn-126" style="edgeStyle=orthogonalEdgeStyle;rounded=0;orthogonalLoop=1;jettySize=auto;html=1;exitX=0.5;exitY=1;exitDx=0;exitDy=0;entryX=0.5;entryY=0;entryDx=0;entryDy=0;" edge="1" parent="1" source="iitkpMzpejvPri1dx7fn-125" target="iitkpMzpejvPri1dx7fn-50">
          <mxGeometry relative="1" as="geometry" />
        </mxCell>
        <mxCell id="iitkpMzpejvPri1dx7fn-125" value="Start" style="rounded=1;whiteSpace=wrap;html=1;arcSize=50;" vertex="1" parent="1">
          <mxGeometry x="1270" y="590" width="180" height="60" as="geometry" />
        </mxCell>
        <mxCell id="iitkpMzpejvPri1dx7fn-130" style="edgeStyle=orthogonalEdgeStyle;rounded=0;orthogonalLoop=1;jettySize=auto;html=1;exitX=0.5;exitY=1;exitDx=0;exitDy=0;entryX=0.5;entryY=0;entryDx=0;entryDy=0;" edge="1" parent="1" source="iitkpMzpejvPri1dx7fn-127" target="iitkpMzpejvPri1dx7fn-88">
          <mxGeometry relative="1" as="geometry" />
        </mxCell>
        <mxCell id="iitkpMzpejvPri1dx7fn-127" value="&lt;br&gt;Propose Best Augmentation&lt;br&gt;Method" style="rhombus;whiteSpace=wrap;html=1;" vertex="1" parent="1">
          <mxGeometry x="1255.25" y="1355" width="209.5" height="90" as="geometry" />
        </mxCell>
        <mxCell id="iitkpMzpejvPri1dx7fn-133" style="edgeStyle=orthogonalEdgeStyle;rounded=0;orthogonalLoop=1;jettySize=auto;html=1;exitX=0.5;exitY=1;exitDx=0;exitDy=0;entryX=0.5;entryY=0;entryDx=0;entryDy=0;" edge="1" parent="1" source="iitkpMzpejvPri1dx7fn-132" target="NWZR9Ss1ib_OHOZOkIhO-37">
          <mxGeometry relative="1" as="geometry" />
        </mxCell>
        <mxCell id="iitkpMzpejvPri1dx7fn-132" value="Start" style="rounded=1;whiteSpace=wrap;html=1;arcSize=50;" vertex="1" parent="1">
          <mxGeometry x="1832" y="480" width="180" height="60" as="geometry" />
        </mxCell>
        <mxCell id="iitkpMzpejvPri1dx7fn-135" value="End" style="rounded=1;whiteSpace=wrap;html=1;arcSize=50;container=0;" vertex="1" parent="1">
          <mxGeometry x="1832" y="1120" width="180" height="60" as="geometry" />
        </mxCell>
        <mxCell id="iitkpMzpejvPri1dx7fn-138" style="edgeStyle=orthogonalEdgeStyle;rounded=0;orthogonalLoop=1;jettySize=auto;html=1;exitX=0.5;exitY=1;exitDx=0;exitDy=0;entryX=0.5;entryY=0;entryDx=0;entryDy=0;" edge="1" parent="1" source="iitkpMzpejvPri1dx7fn-136" target="NWZR9Ss1ib_OHOZOkIhO-55">
          <mxGeometry relative="1" as="geometry" />
        </mxCell>
        <mxCell id="iitkpMzpejvPri1dx7fn-136" value="Create Augmented Dataset&lt;br&gt;from Sample Dataset" style="rounded=1;whiteSpace=wrap;html=1;arcSize=0;container=0;" vertex="1" parent="1">
          <mxGeometry x="1832" y="640" width="180" height="60" as="geometry" />
        </mxCell>
        <mxCell id="iitkpMzpejvPri1dx7fn-141" style="edgeStyle=orthogonalEdgeStyle;rounded=0;orthogonalLoop=1;jettySize=auto;html=1;exitX=1;exitY=0.5;exitDx=0;exitDy=0;entryX=0.996;entryY=0.355;entryDx=0;entryDy=0;entryPerimeter=0;" edge="1" parent="1" source="NWZR9Ss1ib_OHOZOkIhO-60" target="NWZR9Ss1ib_OHOZOkIhO-56">
          <mxGeometry relative="1" as="geometry" />
        </mxCell>
      </root>
    </mxGraphModel>
  </diagram>
</mxfile>
